<svg width="182" height="38" viewBox="0 0 182 38" fill="none" xmlns="http://www.w3.org/2000/svg">
<path d="M12.36 28.27C11.49 28.27 10.68 28.27 9.96 28.24C9.21 28.21 8.52 28.15 7.89 28.03C7.23 27.91 6.66 27.76 6.12 27.52C5.58 27.31 5.07 27.01 4.59 26.65C3.66 25.93 3 25.06 2.64 24.04C2.25 23.02 2.07 21.76 2.07 20.26V14.32C2.07 12.7 2.25 11.32 2.61 10.24C2.97 9.16 3.57 8.32 4.41 7.66C5.25 7.03 6.3 6.58 7.62 6.31C8.91 6.07 10.5 5.92 12.36 5.92H19.8C21.72 5.92 23.31 6.01 24.63 6.16C25.92 6.34 26.97 6.73 27.78 7.33C28.47 7.87 28.98 8.59 29.31 9.49C29.61 10.39 29.79 11.5 29.79 12.82V13.42C29.79 13.63 29.76 13.84 29.76 14.05H23.07V13.84C23.07 12.97 22.77 12.34 22.2 11.95C21.63 11.59 20.76 11.38 19.56 11.38H14.22C13.14 11.38 12.24 11.44 11.55 11.53C10.86 11.65 10.32 11.83 9.9 12.13C9.48 12.43 9.21 12.88 9.06 13.45C8.91 14.02 8.85 14.77 8.85 15.67V18.7C8.85 19.57 8.94 20.26 9.12 20.8C9.3 21.34 9.63 21.73 10.05 22.03C10.47 22.33 11.04 22.54 11.73 22.66C12.39 22.78 13.23 22.81 14.22 22.81H18.09C18.99 22.81 19.77 22.78 20.43 22.72C21.09 22.66 21.63 22.51 22.05 22.3C22.47 22.09 22.77 21.79 22.95 21.4C23.13 21.01 23.25 20.47 23.25 19.81V19.57H30C30 19.87 30.03 20.14 30.03 20.38C30.03 20.65 30.06 20.92 30.06 21.16C30.06 22.54 29.88 23.68 29.55 24.58C29.19 25.48 28.65 26.23 27.87 26.8C27.03 27.43 25.95 27.82 24.63 28C23.31 28.18 21.72 28.27 19.8 28.27H12.36Z" fill="#4D90F5"/>
<path d="M33.8341 6.19H51.3541C52.9741 6.19 54.3841 6.31 55.5241 6.52C56.6641 6.73 57.5641 7.09 58.2841 7.63C59.0041 8.17 59.5141 8.92 59.8141 9.82C60.1141 10.75 60.2941 11.92 60.2941 13.33C60.2941 15.13 60.0241 16.51 59.4841 17.47C58.9441 18.43 58.0141 19.09 56.6641 19.39C58.9441 19.93 60.1141 21.31 60.1141 23.53V28H53.4541V24.67C53.4541 24.22 53.3941 23.86 53.2741 23.56C53.1541 23.26 53.0041 23.05 52.7641 22.87C52.5241 22.69 52.1941 22.57 51.8341 22.51C51.4441 22.45 50.9941 22.42 50.4541 22.42H40.5241V28H33.8341V6.19ZM40.5241 11.62V16.96H51.1141C52.0441 16.96 52.6741 16.75 53.0041 16.3C53.3341 15.88 53.5141 15.13 53.5141 14.08C53.5141 13.24 53.3041 12.64 52.9441 12.22C52.5841 11.83 51.9541 11.62 51.1141 11.62H40.5241ZM73.6978 20.17L61.6678 6.19H69.8578L77.0278 14.86L84.5278 6.19H92.4178L80.3578 20.17V28H73.6978V20.17ZM94.8581 6.19H111.598C112.858 6.19 113.968 6.25 114.928 6.37C115.858 6.49 116.668 6.73 117.388 7.09C118.558 7.72 119.368 8.62 119.848 9.79C120.298 10.96 120.538 12.49 120.538 14.38C120.538 15.85 120.418 17.11 120.178 18.13C119.938 19.18 119.578 20.02 119.068 20.68C118.558 21.34 117.898 21.82 117.058 22.12C116.218 22.42 115.198 22.57 113.998 22.57H101.548V28H94.8581V6.19ZM101.548 11.62V17.14H111.358C112.288 17.14 112.918 16.93 113.248 16.48C113.578 16.03 113.758 15.25 113.758 14.17C113.758 13.3 113.548 12.67 113.188 12.25C112.828 11.83 112.198 11.62 111.358 11.62H101.548ZM131.656 11.53H122.536V6.19H147.436V11.53H138.316V28H131.656V11.53ZM166.784 22.81C167.834 22.81 168.734 22.78 169.484 22.66C170.204 22.57 170.804 22.36 171.284 22.06C171.764 21.76 172.094 21.34 172.304 20.8C172.514 20.26 172.634 19.54 172.634 18.64V15.55C172.634 14.68 172.514 13.96 172.304 13.42C172.094 12.88 171.764 12.43 171.284 12.13C170.804 11.83 170.204 11.65 169.484 11.53C168.734 11.44 167.834 11.38 166.784 11.38H162.524C161.444 11.38 160.514 11.44 159.794 11.53C159.044 11.65 158.444 11.86 157.964 12.16C157.484 12.46 157.154 12.91 156.974 13.45C156.764 14.02 156.674 14.77 156.674 15.67V18.7C156.674 19.57 156.764 20.26 157.004 20.8C157.214 21.34 157.544 21.76 158.024 22.06C158.504 22.36 159.104 22.57 159.854 22.66C160.574 22.78 161.474 22.81 162.554 22.81H166.784ZM160.754 28.27C159.764 28.27 158.864 28.27 158.024 28.24C157.184 28.21 156.434 28.15 155.744 28.03C155.024 27.94 154.394 27.79 153.824 27.58C153.224 27.37 152.714 27.1 152.264 26.74C151.364 26.08 150.734 25.24 150.404 24.19C150.044 23.17 149.894 21.85 149.894 20.26V14.32C149.894 12.64 150.044 11.23 150.404 10.12C150.734 9.04 151.364 8.14 152.264 7.45C153.164 6.79 154.274 6.37 155.654 6.19C157.034 6.01 158.714 5.92 160.724 5.92H168.554C170.534 5.92 172.244 6.01 173.624 6.19C175.004 6.37 176.144 6.79 177.044 7.45C177.884 8.11 178.484 8.95 178.844 10.03C179.204 11.11 179.384 12.43 179.384 14.05V20.14C179.384 21.76 179.204 23.11 178.844 24.19C178.484 25.27 177.884 26.11 177.044 26.74C176.144 27.43 174.974 27.85 173.594 28.03C172.214 28.21 170.534 28.27 168.554 28.27H160.754Z" fill="white"/>
</svg>
